<?xml version="1.0" encoding="UTF-8" standalone="no"?>
<!-- Created with Inkscape (http://www.inkscape.org/) -->
<svg xmlns:rdf="http://www.w3.org/1999/02/22-rdf-syntax-ns#" xmlns="http://www.w3.org/2000/svg" xml:space="preserve" height="32" width="36.4" version="1.1" xmlns:cc="http://creativecommons.org/ns#" xmlns:dc="http://purl.org/dc/elements/1.1/"><metadata><rdf:RDF><cc:Work rdf:about=""><dc:format>image/svg+xml</dc:format><dc:type rdf:resource="http://purl.org/dc/dcmitype/StillImage"/><dc:title/></cc:Work></rdf:RDF></metadata><defs><clipPath id="clipPath16" clipPathUnits="userSpaceOnUse"><path d="M0,216,216,216,216,0,0,0,0,216z"/></clipPath><clipPath id="clipPath28" clipPathUnits="userSpaceOnUse"><path d="m122,55.7c0.343,1.11,0.39,2.83-3.04,2.05,0,0-9.4-1.34-9.84-12.3l-0.214-21h-2.26l-0.213,21c-0.448,11-9.84,12.3-9.84,12.3-3.43,0.778-3.38-0.938-3.04-2.05-3.37,5.74-12.4,5-12.4,5-3.13-1.12-0.224-3.13-0.224-3.13,4.92-1.79,5.37-7.16,5.37-7.16v-15.2l0.52-11.7c1.12-5.22,3.87-8.31,6.58-10.1l28.8,0.033c3.48,2.36,7.05,6.85,7.05,15.3v21.7s0.447,5.37,5.37,7.16c0,0,2.91,2.01-0.225,3.13,0,0-0.382,0.031-1.02,0.032-2.46,0-8.7-0.469-11.4-5.03m-27.2-21.6,0,16.6c0,1.62-0.285,2.98-0.773,4.12,3.24-2.53,3.46-8.86,3.46-8.86v-20.7c-3.22,2.28-2.68,8.85-2.68,8.85m23.3,11.8s0.217,6.33,3.46,8.86c-0.487-1.14-0.772-2.5-0.772-4.12v-16.6s0.539-6.1-2.68-8.61v20.4z"/></clipPath><clipPath id="clipPath40" clipPathUnits="userSpaceOnUse"><path d="M0,216,216,216,216,0,0,0,0,216z"/></clipPath></defs><g transform="matrix(1.25,0,0,-1.25,-22.2825,78.723877)"><g transform="matrix(0.16241658,0,0,0.16241666,14.930762,31.308112)"><g clip-path="url(#clipPath16)"><g transform="translate(158.542,54.9961)"><path fill-rule="nonzero" fill="#a0dcf2" d="m0,0c0-9.73-22.5-17.6-50.3-17.6s-50.3,7.89-50.3,17.6c0,9.73,22.5,17.6,50.3,17.6,28.2,0,50.7-7.87,50.7-17.6"/></g></g></g><g transform="matrix(0.16241658,0,0,0.16241666,14.930762,31.308112)"><g clip-path="url(#clipPath28)"><g transform="translate(158.542,54.9961)"><path fill-rule="nonzero" fill="#82bde7" d="m0,0c0-9.73-22.5-17.6-50.3-17.6s-50.3,7.89-50.3,17.6c0,9.73,22.5,17.6,50.3,17.6,28.2,0,50.7-7.87,50.7-17.6"/></g></g></g><g transform="matrix(0.16241658,0,0,0.16241666,14.930762,31.308112)"><g clip-path="url(#clipPath40)"><g transform="translate(50.6987,106.8008)"><path fill-rule="nonzero" fill="#a0dcf2" d="m0,0-1.45-5.06s-0.378-1.83,1.35-2.15c1.8,0.035,1.65,1.72,1.53,2.27l-1.43,4.94z"/></g><g transform="translate(197.042,128.0273)"><path fill-rule="nonzero" fill="#292929" d="m0,0,0.133,0.658c-14.8,2.95-29.9,2.98-39.1,2.6,1.51,5.43,1.96,11.7,1.96,18.6,0,9.99-3.75,18-9.84,24.1,1.06,3.44,2.49,11.1-1.42,20.8,0,0-6.89,2.19-22.5-8.24-6.11,1.53-12.6,2.28-19.1,2.28-7.16,0-14.4-0.912-21.1-2.76-16.1,11-23.2,8.73-23.2,8.73-4.64-11.6-1.77-20.2-0.899-22.3-5.45-5.88-8.77-13.4-8.77-22.6,0-6.95,0.792-13.2,2.72-18.6-9.25,0.336-23.8,0.207-38.1-2.64v-0.66c14.3,2.86,29,2.96,38.2,2.62,0.425-1.12,0.899-2.21,1.43-3.26-9.09-0.293-24.6-1.45-39.5-5.65l0.182-0.645c15,4.23,30.6,5.36,39.6,5.63,5.43-10.1,16.1-16.7,35.2-18.7-2.7-1.82-5.46-4.9-6.58-10.1-3.68-1.76-15.3-6.06-22.3,5.97,0,0-3.92,7.16-11.4,7.72,0,0-7.27,0.111-0.503-4.53,0,0,4.87-2.29,8.22-10.9,0,0,4.38-14.7,25.5-9.98v-15.2s-0.447-5.37-5.37-7.16c0,0-2.91-2.01,0.224-3.13,0,0,13.6-1.12,13.6,10.1v16.6s-0.54,6.56,2.68,8.85v-27.2s-0.222-6.49-3.58-8.95c0,0-2.24-4.02,2.68-2.91,0,0,9.39,1.34,9.84,12.3l0.214,27.5h2.26l0.215-27.5c0.447-11,9.84-12.3,9.84-12.3,4.92-1.12,2.68,2.91,2.68,2.91-3.36,2.46-3.58,8.95-3.58,8.95v27c3.22-2.51,2.68-8.61,2.68-8.61v-16.6c0-11.2,13.6-10.1,13.6-10.1,3.13,1.12,0.225,3.13,0.225,3.13-4.92,1.79-5.37,7.16-5.37,7.16v21.7c0,8.46-3.56,12.9-7.05,15.3,20.3,2.01,30.1,8.57,34.5,18.8,8.9-0.244,24.9-1.33,40.2-5.65l0.182,0.645c-15.2,4.3-31.1,5.41-40.1,5.67,0.426,1.03,0.797,2.1,1.13,3.2,9.7,0.3,24.9,0.29,39.7-2.67"/></g><g transform="translate(140.1777,150.3906)"><path fill-rule="nonzero" fill="#f5cdb5" d="m0,0c4.38-3.96,6.93-8.75,6.93-13.9,0-24.1-17.9-24.7-40.1-24.7-22.1,0-40.1,3.33-40.1,24.7,0,5.12,2.52,9.88,6.84,13.8,7.21,6.58,19.4,3.1,33.2,3.1,13.9,0.02,26.1,3.53,33.3-3"/></g><g transform="translate(93.6968,135.2578)"><path fill-rule="nonzero" fill="#FFF" d="m0,0c0-6.63-3.73-12-8.34-12s-8.34,5.38-8.34,12c0,6.63,3.74,12,8.34,12,4.63,0,8.36-5.37,8.36-12"/></g><g transform="translate(91.021,135.1074)"><path fill-rule="nonzero" fill="#b1645a" d="m0,0c0-4.42-2.49-8-5.56-8s-5.56,3.58-5.56,8,2.49,8.01,5.56,8.01c3.05,0,5.54-3.59,5.54-8.01"/></g><g transform="translate(138.4434,135.2578)"><path fill-rule="nonzero" fill="#FFF" d="m0,0c0-6.63-3.73-12-8.34-12-4.6,0-8.34,5.38-8.34,12,0,6.63,3.74,12,8.34,12,4.63,0,8.36-5.37,8.36-12"/></g><g transform="translate(135.7656,135.1074)"><path fill-rule="nonzero" fill="#b1645a" d="m0,0c0-4.42-2.49-8-5.56-8s-5.56,3.58-5.56,8,2.49,8.01,5.56,8.01c3.05,0,5.54-3.59,5.54-8.01"/></g><g transform="translate(109.2305,124.5957)"><path fill-rule="nonzero" fill="#b1645a" d="m0,0c0-1.15-0.934-2.09-2.09-2.09-1.15,0-2.09,0.934-2.09,2.09,0,1.15,0.933,2.09,2.09,2.09s2.09-0.94,2.09-2.09"/></g><g transform="translate(102.2847,119.3223)"><path fill-rule="nonzero" fill="#b1645a" d="m0,0c-0.123,0.35,0.061,0.732,0.409,0.855,0.349,0.124,0.733-0.06,0.856-0.408,0.536-1.52,1.97-2.53,3.58-2.53,1.6,0,3.04,1.02,3.58,2.53,0.123,0.35,0.506,0.532,0.856,0.408,0.34-0.126,0.53-0.508,0.4-0.858-0.72-2.05-2.67-3.43-4.84-3.43s-4.11,1.38-4.84,3.43"/></g><g transform="translate(56.0405,109.7852)"><path fill-rule="nonzero" fill="#c5e6da" d="m0,0c0-0.557-0.652-1.01-1.46-1.01-0.803,0-1.45,0.449-1.45,1.01,0,0.557,0.651,1.01,1.45,1.01,0.808,0,1.46-0.453,1.46-1.01"/></g><g transform="translate(60.0679,107.5488)"><path fill-rule="nonzero" fill="#c5e6da" d="m0,0c0-0.557-0.652-1.01-1.46-1.01-0.803,0-1.45,0.451-1.45,1.01,0,0.555,0.651,1.01,1.45,1.01,0.808,0,1.46-0.455,1.46-1.01"/></g><g transform="translate(62.5288,104.6387)"><path fill-rule="nonzero" fill="#c5e6da" d="m0,0c0-0.555-0.651-1.01-1.46-1.01-0.803,0-1.45,0.451-1.45,1.01,0,0.557,0.65,1.01,1.45,1.01,0.809,0,1.46-0.453,1.46-1.01"/></g><g transform="translate(64.7651,101.2832)"><path fill-rule="nonzero" fill="#c5e6da" d="m0,0c0-0.557-0.65-1.01-1.45-1.01-0.804,0-1.46,0.451-1.46,1.01,0,0.557,0.651,1.01,1.46,1.01,0.8,0,1.45-0.453,1.45-1.01"/></g><g transform="translate(67.2271,98.1504)"><path fill-rule="nonzero" fill="#c5e6da" d="m0,0c0-0.555-0.651-1.01-1.45-1.01-0.803,0-1.46,0.451-1.46,1.01,0,0.557,0.652,1.01,1.46,1.01,0.799,0,1.45-0.453,1.45-1.01"/></g><g transform="translate(70.5835,95.4668)"><path fill-rule="nonzero" fill="#c5e6da" d="m0,0c0-0.557-0.651-1.01-1.46-1.01-0.803,0-1.45,0.451-1.45,1.01,0,0.555,0.65,1.01,1.45,1.01,0.809,0,1.46-0.455,1.46-1.01"/></g><g transform="translate(75.2817,93.6758)"><path fill-rule="nonzero" fill="#c5e6da" d="m0,0c0-0.555-0.651-1.01-1.45-1.01-0.804,0-1.46,0.451-1.46,1.01,0,0.557,0.651,1.01,1.46,1.01,0.799,0,1.45-0.453,1.45-1.01"/></g><g transform="translate(79.9575,93.6758)"><path fill-rule="nonzero" fill="#c5e6da" d="m0,0c0-0.555-0.651-1.01-1.45-1.01-0.804,0-1.46,0.451-1.46,1.01,0,0.557,0.651,1.01,1.46,1.01,0.799,0,1.45-0.453,1.45-1.01"/></g><g transform="translate(84.7036,94.4551)"><path fill-rule="nonzero" fill="#c5e6da" d="m0,0c0-0.557-0.651-1.01-1.45-1.01-0.804,0-1.46,0.451-1.46,1.01,0,0.557,0.651,1.01,1.46,1.01,0.799,0,1.45-0.453,1.45-1.01"/></g></g></g></g></svg>
