<?xml version="1.0" encoding="UTF-8" standalone="no"?>
<svg
   xmlns:dc="http://purl.org/dc/elements/1.1/"
   xmlns:cc="http://creativecommons.org/ns#"
   xmlns:rdf="http://www.w3.org/1999/02/22-rdf-syntax-ns#"
   xmlns:svg="http://www.w3.org/2000/svg"
   xmlns="http://www.w3.org/2000/svg"
   xmlns:sodipodi="http://sodipodi.sourceforge.net/DTD/sodipodi-0.dtd"
   xmlns:inkscape="http://www.inkscape.org/namespaces/inkscape"
   height="32"
   width="32"
   version="1.0"
   id="svg2"
   inkscape:version="0.48.3.1 r9886"
   sodipodi:docname="linkedin.svg">
  <metadata
     id="metadata21">
    <rdf:RDF>
      <cc:Work
         rdf:about="">
        <dc:format>image/svg+xml</dc:format>
        <dc:type
           rdf:resource="http://purl.org/dc/dcmitype/StillImage" />
        <dc:title></dc:title>
      </cc:Work>
    </rdf:RDF>
  </metadata>
  <sodipodi:namedview
     pagecolor="#ffffff"
     bordercolor="#666666"
     borderopacity="1"
     objecttolerance="10"
     gridtolerance="10"
     guidetolerance="10"
     inkscape:pageopacity="0"
     inkscape:pageshadow="2"
     inkscape:window-width="1440"
     inkscape:window-height="876"
     id="namedview19"
     showgrid="false"
     fit-margin-top="0"
     fit-margin-left="0"
     fit-margin-right="0"
     fit-margin-bottom="0"
     inkscape:zoom="1.18"
     inkscape:cx="100"
     inkscape:cy="99.991226"
     inkscape:window-x="0"
     inkscape:window-y="24"
     inkscape:window-maximized="1"
     inkscape:current-layer="svg2" />
  <defs
     id="defs4">
    <linearGradient
       id="linearGradient3003"
       y2="425.39999"
       gradientUnits="userSpaceOnUse"
       x2="-395.85001"
       gradientTransform="matrix(-0.08053632,0,0,0.08054438,-23.708685,-25.412656)"
       y1="274.70999"
       x1="-344.14999">
      <stop
         stop-color="#FFF"
         offset="0"
         id="stop7" />
      <stop
         stop-color="#FFF"
         stop-opacity="0"
         offset="1"
         id="stop9" />
    </linearGradient>
  </defs>
  <rect
     transform="scale(-1,1)"
     rx="4.83216"
     ry="4.8326435"
     height="32"
     width="32"
     y="0"
     x="-32"
     id="rect11"
     style="fill:#006699" />
  <path
     d="m 23.5456,1.3681238 -15.0912,0 c -3.99472,0 -7.21056,3.24241 -7.21056,7.27001 V 23.362804 c 0.1293024,3.14384 0.626672,1.15638 1.573392,-2.32519 1.100288,-4.04632 4.68368,-7.58284 9.04752,-10.23334 3.33072,-2.0229202 7.05904,-3.3147302 13.84528,-3.4376302 3.84864,-0.0697 3.50896,-4.99538 -2.16432,-5.99852 z"
     id="path13"
     style="opacity:0.7811159;fill:url(#linearGradient3003)"
     inkscape:connector-curvature="0" />
  <path
     d="m 10.23872,26.856884 0,-14.54289 -4.83328,0 0,14.54289 4.83328,0 z m -2.416,-16.52965 c 1.68544,0 2.73456,-1.1167402 2.73456,-2.5122502 -0.03141,-1.42701 -1.049056,-2.51273 -2.70256,-2.51273 -1.65328,0 -2.7344,1.08574 -2.7344,2.51273 0,1.39559 1.048848,2.5122502 2.67088,2.5122502 h 0.031413 z"
     id="path15"
     inkscape:connector-curvature="0"
     style="fill:#ffffff" />
  <path
     d="m 12.91392,26.856884 4.83328,0 0,-8.12145 c 0,-0.43465 0.03141,-0.86886 0.159037,-1.17956 0.349408,-0.86842 1.144672,-1.76786 2.47984,-1.76786 1.74896,0 2.44864,1.33363 2.44864,3.28865 v 7.78014 h 4.83296 v -8.33875 c 0,-4.46701 -2.38448,-6.54546 -5.56448,-6.54546 -2.60736,0 -3.75216,1.45757 -4.38816,2.45033 h 0.03227 v -2.10917 h -4.83328 c 0.06343,1.36461 0,14.54289 0,14.54289 z"
     id="path17"
     inkscape:connector-curvature="0"
     style="fill:#ffffff" />
</svg>
