<?xml version="1.0" encoding="UTF-8" standalone="no"?>
<!-- Created with Inkscape (http://www.inkscape.org/) -->
<svg xmlns:rdf="http://www.w3.org/1999/02/22-rdf-syntax-ns#" xmlns="http://www.w3.org/2000/svg" xml:space="preserve" height="32" width="31.6" version="1.1" xmlns:cc="http://creativecommons.org/ns#" xmlns:dc="http://purl.org/dc/elements/1.1/"><metadata><rdf:RDF><cc:Work rdf:about=""><dc:format>image/svg+xml</dc:format><dc:type rdf:resource="http://purl.org/dc/dcmitype/StillImage"/><dc:title/></cc:Work></rdf:RDF></metadata><defs><clipPath id="clipPath18"><path d="m0,842,595,0v-842h-595v842z"/></clipPath></defs><g transform="matrix(0.080777,0,0,-0.08077687,-8.3495146,49.843045)"><g clip-path="url(#clipPath18)"><path fill-rule="nonzero" fill="#00aaf1" d="m483,377c2.82,12.9,4.32,26.3,4.32,40,0,103-83.4,186-186,186-10.9,0-21.5-0.94-31.9-2.72-16.7,10.5-36.4,16.6-57.5,16.6-59.7,0-108-48.4-108-108,0-19.9,5.43-38.6,14.9-54.6-2.47-12.1-3.77-24.6-3.77-37.5,0-103,83.4-186,186-186,11.7,0,23.1,1.08,34.1,3.13,15.2-8.18,32.6-12.8,51.1-12.8,59.7,0,108,48.4,108,108,0,17.2-4.06,33.5-11.2,48"/><path fill-rule="nonzero" fill="#FFF" d="m245,539,0,0c-15.7-5.79-27.8-14.2-36.2-25.1-8.39-10.9-12.7-23.6-12.7-37.7,0-14.8,4.06-27.3,12.1-37.3,7.88-9.86,18.6-17.7,32-23.4,13.1-5.56,29.5-10.5,48.8-14.6,14.2-2.98,25.7-5.82,34.2-8.46,8.12-2.53,14.8-6.22,19.9-11,4.84-4.54,7.2-10.3,7.2-17.7,0-9.31-4.51-16.9-13.8-23.2-9.5-6.48-22.1-9.77-37.5-9.77-11.2,0-20.3,1.62-27.1,4.82-6.72,3.18-12,7.24-15.6,12.1-3.8,5.03-7.4,11.4-10.7,19-2.96,6.94-6.64,12.3-10.9,16-4.49,3.79-10,5.72-16.4,5.72-7.8,0-14.3-2.43-19.4-7.23-5.16-4.84-7.77-10.8-7.77-17.6,0-10.9,4.01-22.2,11.9-33.7,7.84-11.3,18.2-20.5,30.7-27.2,17.5-9.29,39.9-14,66.7-14,22.3,0,41.9,3.44,58.2,10.2,16.5,6.86,29.2,16.5,37.8,28.7,8.65,12.2,13,26.2,13,41.6,0,12.8-2.55,23.9-7.58,32.8-5.01,8.91-12.1,16.4-21,22.2-8.74,5.69-19.5,10.6-31.9,14.6-12.3,3.92-26.1,7.54-41.2,10.8-11.9,2.75-20.6,4.88-25.8,6.32-5.05,1.4-10.1,3.35-15,5.81-4.72,2.36-8.46,5.2-11.1,8.44-2.5,3.05-3.72,6.6-3.72,10.8,0,6.92,3.78,12.8,11.5,17.9,8.06,5.29,18.9,7.97,32.3,7.97,14.4,0,24.8-2.42,31.1-7.18,6.45-4.9,12.1-11.9,16.7-20.7,4.01-6.91,7.63-11.7,11.1-14.8,3.75-3.32,9.15-5,16-5,7.6,0,14,2.69,19.1,8,5.07,5.27,7.64,11.3,7.64,18,0,6.92-1.96,14.1-5.83,21.3-3.83,7.11-9.92,14-18.1,20.4-8.14,6.36-18.5,11.5-30.8,15.3-12.2,3.8-26.8,5.72-43.5,5.72-20.8,0-39.2-2.9-54.7-8.62"/><path stroke-linejoin="miter" d="m245,539,0,0c-15.7-5.79-27.8-14.2-36.2-25.1-8.39-10.9-12.7-23.6-12.7-37.7,0-14.8,4.06-27.3,12.1-37.3,7.88-9.86,18.6-17.7,32-23.4,13.1-5.56,29.5-10.5,48.8-14.6,14.2-2.98,25.7-5.82,34.2-8.46,8.12-2.53,14.8-6.22,19.9-11,4.84-4.54,7.2-10.3,7.2-17.7,0-9.31-4.51-16.9-13.8-23.2-9.5-6.48-22.1-9.77-37.5-9.77-11.2,0-20.3,1.62-27.1,4.82-6.72,3.18-12,7.24-15.6,12.1-3.8,5.03-7.4,11.4-10.7,19-2.96,6.94-6.64,12.3-10.9,16-4.49,3.79-10,5.72-16.4,5.72-7.8,0-14.3-2.43-19.4-7.23-5.16-4.84-7.77-10.8-7.77-17.6,0-10.9,4.01-22.2,11.9-33.7,7.84-11.3,18.2-20.5,30.7-27.2,17.5-9.29,39.9-14,66.7-14,22.3,0,41.9,3.44,58.2,10.2,16.5,6.86,29.2,16.5,37.8,28.7,8.65,12.2,13,26.2,13,41.6,0,12.8-2.55,23.9-7.58,32.8-5.01,8.91-12.1,16.4-21,22.2-8.74,5.69-19.5,10.6-31.9,14.6-12.3,3.92-26.1,7.54-41.2,10.8-11.9,2.75-20.6,4.88-25.8,6.32-5.05,1.4-10.1,3.35-15,5.81-4.72,2.36-8.46,5.2-11.1,8.44-2.5,3.05-3.72,6.6-3.72,10.8,0,6.92,3.78,12.8,11.5,17.9,8.06,5.29,18.9,7.97,32.3,7.97,14.4,0,24.8-2.42,31.1-7.18,6.45-4.9,12.1-11.9,16.7-20.7,4.01-6.91,7.63-11.7,11.1-14.8,3.75-3.32,9.15-5,16-5,7.6,0,14,2.69,19.1,8,5.07,5.27,7.64,11.3,7.64,18,0,6.92-1.96,14.1-5.83,21.3-3.83,7.11-9.92,14-18.1,20.4-8.14,6.36-18.5,11.5-30.8,15.3-12.2,3.8-26.8,5.72-43.5,5.72-20.8,0-39.2-2.9-54.7-8.62z" stroke="#00aaf1" stroke-linecap="butt" stroke-miterlimit="4" stroke-dasharray="none" stroke-width="1" fill="none"/></g></g></svg>
